<svg xmlns="http://www.w3.org/2000/svg" xmlns:xlink="http://www.w3.org/1999/xlink"><symbol id="arrow" viewBox="0 0 13 25">
<g id="arrow">
<path id="Shape" d="M6.51509 0.0428432L6.54355 0.0102539L12.855 7.25758L11.5312 8.70713L7.2689 3.88391V25H5.79011V3.85222L1.49976 8.70713L0.205811 7.25758L6.50252 0.0102539L6.51546 0.0428432H6.51509Z" fill="white"/>
</g>
</symbol><symbol id="basket" viewBox="0 0 19 23">
<g id="basket">
<path id="Rectangle-10" fill-rule="evenodd" clip-rule="evenodd" d="M18.9474 6.85876H0V18.6482C0 20.8574 1.79086 22.6482 4 22.6482H14.9474C17.1565 22.6482 18.9474 20.8574 18.9474 18.6482V6.85876ZM4 21.1482C2.61929 21.1482 1.5 20.029 1.5 18.6482V8.35876H17.4474V18.6482C17.4474 20.029 16.3281 21.1482 14.9474 21.1482H4Z" fill="#262626"/>
<path id="Rectangle-3" d="M6.01315 12.06V5.86806C6.01315 3.95686 7.56248 2.40753 9.47368 2.40753C11.3849 2.40753 12.9342 3.95686 12.9342 5.86806V12.06C12.9342 12.4742 13.27 12.81 13.6842 12.81C14.0984 12.81 14.4342 12.4742 14.4342 12.06V5.86806C14.4342 3.12844 12.2133 0.907532 9.47368 0.907532C6.73406 0.907532 4.51315 3.12844 4.51315 5.86806V12.06C4.51315 12.4742 4.84894 12.81 5.26315 12.81C5.67737 12.81 6.01315 12.4742 6.01315 12.06Z" fill="#262626"/>
</g>
</symbol><symbol id="facebook" viewBox="0 0 18 18">
  <path fill-rule="evenodd" clip-rule="evenodd" d="M16.5 0H1.5C0.659973 0 0 0.660034 0 1.5V16.5C0 17.34 0.659973 18 1.5 18H8.40002H12H16.5C17.34 18 18 17.34 18 16.5V1.5C18 0.660034 17.34 0 16.5 0ZM9.05185 11.2609H6.79999V8.96521H9.05185V6.95654C9.05185 5.32092 10.2904 3.94348 11.8667 3.80005H14.4V6.0957H12.1481C11.6696 6.0957 11.3037 6.46875 11.3037 6.95654V8.96521H14.1185V11.2609H11.3037V17.2001H9.05185V11.2609ZM11.9286 17.2001H16.3214C16.8193 17.2001 17.2 16.8193 17.2 16.3215V1.67859C17.2 1.18079 16.8193 0.800049 16.3214 0.800049H1.67856C1.18069 0.800049 0.799988 1.18079 0.799988 1.67859V16.3215C0.799988 16.8193 1.18069 17.2001 1.67856 17.2001H8.41425V11.9286H6.07138V8.41431H8.41425V6.95007C8.41425 4.98792 9.93713 3.3186 11.8993 3.14294H15.15V6.65723H12.2214C12.0457 6.65723 11.9286 6.77429 11.9286 6.95007V8.41431H14.8571V11.9286H11.9286V17.2001Z"/>
</symbol><symbol id="insta" viewBox="0 0 18 18">
  <path fill-rule="evenodd" clip-rule="evenodd" d="M13.0325 0H4.96724C2.22831 0 0 2.22841 0 4.96735V13.0327C0 15.7717 2.22831 18 4.96724 18H13.0325C15.7717 18 18 15.7716 18 13.0327V4.96735C18.0001 2.22841 15.7717 0 13.0325 0ZM17.0001 13.3579C17.0001 15.3662 15.3662 17 13.3579 17H4.642C2.6338 17.0001 1 15.3662 1 13.3579V4.64212C1 2.63392 2.6338 1 4.642 1H13.3578C15.3661 1 17 2.63392 17 4.64212V13.3579H17.0001ZM4.36186 9.00021C4.36186 6.4427 6.44249 4.36207 9 4.36207C11.5575 4.36207 13.6381 6.4427 13.6381 9.00021C13.6381 11.5576 11.5575 13.6381 9 13.6381C6.44249 13.6381 4.36186 11.5576 4.36186 9.00021ZM13.4349 2.83418C13.5833 2.68509 13.7898 2.6 14 2.6C14.2109 2.6 14.4175 2.68509 14.5658 2.83418C14.7149 2.98255 14.8 3.18909 14.8 3.4C14.8 3.61018 14.7149 3.81673 14.5658 3.96582C14.4167 4.11418 14.2109 4.2 14 4.2C13.7898 4.2 13.5833 4.11418 13.4349 3.96582C13.2858 3.81673 13.2 3.61025 13.2 3.4C13.2 3.18909 13.2857 2.98255 13.4349 2.83418Z"/>
</symbol><symbol id="logo" viewBox="0 0 107 13">
<g id="logo">
<g id="XMLID_234_">
<path id="XMLID_243_" d="M8.33278 1.46767V7.33465C8.33278 9.2903 7.48249 10.0981 5.4418 10.0981C3.40112 10.0981 2.55083 9.2903 2.55083 7.33465V1.21259H0.595174C0.467631 1.21259 0.340088 1.34013 0.340088 1.46767V7.41967C0.340088 10.6933 2.42329 11.8412 5.4418 11.8412C8.46032 11.8412 10.5435 10.6933 10.5435 7.41967V1.21259H8.58786C8.46032 1.21259 8.33278 1.29761 8.33278 1.46767Z" fill="black"/>
<path id="XMLID_242_" d="M36.7749 2.91316C36.945 2.91316 37.03 2.87064 37.0725 2.7431L37.6252 1.34013C37.6677 1.2551 37.6252 1.21259 37.5402 1.21259H29.6325C28.9098 1.21259 28.6122 1.42516 28.6122 1.93533V11.0334C28.6122 11.4585 28.8248 11.6711 29.3774 11.6711H36.7324C36.9025 11.6711 36.9875 11.6286 37.03 11.501L37.5827 10.0981C37.6252 10.013 37.5827 9.97053 37.4977 9.97053H30.7804V8.0999C30.7804 7.46219 31.1205 7.16459 32.0984 7.16459H35.0318C35.2019 7.16459 35.2869 7.12207 35.3294 6.99453L35.8821 5.63407C35.9246 5.54904 35.8821 5.50653 35.7971 5.50653H30.8229V2.87064H36.7749V2.91316Z" fill="black"/>
<path id="XMLID_238_" fill-rule="evenodd" clip-rule="evenodd" d="M22.8727 6.14426C23.7229 5.67657 24.0631 4.8688 24.0631 3.84848C24.0631 1.5527 22.1925 1.21259 20.2368 1.21259H15.7728C15.05 1.21259 14.7524 1.42517 14.7524 1.93533V11.0334C14.7524 11.4585 14.965 11.6711 15.5177 11.6711H21.0021C23.0852 11.6711 24.5308 10.8633 24.5308 8.78012C24.5732 7.5047 24.0631 6.44183 22.8727 6.14426ZM16.9631 2.87064H20.4067C21.5547 2.87064 21.8948 3.29578 21.8948 4.18857C21.8948 5.08139 21.5547 5.50653 20.4067 5.50653H16.9631V2.87064ZM16.9631 9.97052H20.8319C22.0648 9.97052 22.4049 9.54538 22.4049 8.56757C22.4049 7.58972 22.0648 7.12207 20.8319 7.12207H18.2811C17.3032 7.12207 16.9631 7.41968 16.9631 8.05737V9.97052Z" fill="black"/>
<path id="XMLID_235_" fill-rule="evenodd" clip-rule="evenodd" d="M48.9764 7.46219L51.3147 11.501C51.3573 11.5435 51.3573 11.6711 51.2722 11.6711H49.274C49.104 11.6711 49.0615 11.6286 48.9764 11.501L46.8507 7.67477H44.9376C43.9597 7.67477 43.6196 7.97235 43.6196 8.61008V11.6711H41.7065C41.579 11.6711 41.4514 11.5435 41.4514 11.416V1.93533C41.4514 1.42517 41.749 1.21259 42.4718 1.21259H46.9358C49.5292 1.21259 51.1022 1.89282 51.1022 4.44366C51.1022 6.39932 50.1244 7.16458 48.9764 7.46219ZM43.5771 6.0592H47.2334C48.5939 6.0592 48.8915 5.54904 48.8915 4.44366C48.8915 3.3808 48.5939 2.87064 47.2334 2.87064H43.5771V6.0592Z" fill="black"/>
</g>
<g id="XMLID_224_">
<path id="XMLID_232_" d="M67.5977 10.7358L67.5552 11.6711H59.8176V1.21259H67.2576L67.3001 2.19041H60.8805V5.80413H66.4073V6.65442H60.8805V10.7358H67.5977Z" fill="#57AD56" stroke="#57AD56" stroke-width="0.25"/>
<g id="XMLID_229_">
<path fill-rule="evenodd" clip-rule="evenodd" d="M74.0173 8.9502H80.1819L81.3723 11.6711H82.5627L77.7587 1.21259H76.5258L71.6791 11.6711H72.8269L74.0173 8.9502ZM74.4 8.0574L76.6533 2.9982L77.0784 1.93533H77.121L77.5461 2.9982L79.7568 8.0574H74.4Z" fill="#57AD56"/>
<path d="M80.1819 8.9502L80.2964 8.90009L80.2636 8.8252H80.1819V8.9502ZM74.0173 8.9502V8.8252H73.9356L73.9028 8.90009L74.0173 8.9502ZM81.3723 11.6711L81.2578 11.7212L81.2906 11.7961H81.3723V11.6711ZM82.5627 11.6711V11.7961H82.7577L82.6763 11.6189L82.5627 11.6711ZM77.7587 1.21259L77.8723 1.16041L77.8388 1.08759H77.7587V1.21259ZM76.5258 1.21259V1.08759H76.4459L76.4123 1.16003L76.5258 1.21259ZM71.6791 11.6711L71.5657 11.6186L71.4834 11.7961H71.6791V11.6711ZM72.8269 11.6711V11.7961H72.9087L72.9414 11.7212L72.8269 11.6711ZM76.6533 2.9982L76.7676 3.04909L76.7694 3.04461L76.6533 2.9982ZM74.4 8.0574L74.2858 8.00655L74.2075 8.1824H74.4V8.0574ZM77.0784 1.93533V1.81033H76.9937L76.9623 1.88892L77.0784 1.93533ZM77.121 1.93533L77.237 1.88891L77.2056 1.81033H77.121V1.93533ZM77.5461 2.9982L77.43 3.04465L77.4316 3.04825L77.5461 2.9982ZM79.7568 8.0574V8.1824H79.9479L79.8714 8.00735L79.7568 8.0574ZM80.1819 8.8252H74.0173V9.0752H80.1819V8.8252ZM81.4868 11.621L80.2964 8.90009L80.0674 9.0003L81.2578 11.7212L81.4868 11.621ZM82.5627 11.5461H81.3723V11.7961H82.5627V11.5461ZM77.6451 1.26476L82.4492 11.7233L82.6763 11.6189L77.8723 1.16041L77.6451 1.26476ZM76.5258 1.33759H77.7587V1.08759H76.5258V1.33759ZM71.7925 11.7237L76.6392 1.26514L76.4123 1.16003L71.5657 11.6186L71.7925 11.7237ZM72.8269 11.5461H71.6791V11.7961H72.8269V11.5461ZM73.9028 8.90009L72.7124 11.621L72.9414 11.7212L74.1319 9.0003L73.9028 8.90009ZM76.5391 2.94734L74.2858 8.00655L74.5142 8.10826L76.7675 3.04906L76.5391 2.94734ZM76.9623 1.88892L76.5373 2.95178L76.7694 3.04461L77.1944 1.98175L76.9623 1.88892ZM77.121 1.81033H77.0784V2.06033H77.121V1.81033ZM77.6622 2.95177L77.237 1.88891L77.0049 1.98176L77.4301 3.04463L77.6622 2.95177ZM79.8714 8.00735L77.6607 2.94815L77.4316 3.04825L79.6423 8.10745L79.8714 8.00735ZM74.4 8.1824H79.7568V7.9324H74.4V8.1824Z" fill="#57AD56"/>
</g>
<path id="XMLID_227_" d="M90.2154 2.19041V11.6711H89.1525V2.19041H85.2412L85.2837 1.21259H94.1692V2.19041H90.2154Z" fill="#57AD56" stroke="#57AD56" stroke-width="0.25"/>
<path id="XMLID_225_" d="M101.737 11.8837C100.291 11.8837 99.1433 11.5435 98.208 10.9909L98.3781 10.0555C99.3559 10.6082 100.461 10.9483 101.779 10.9483C103.735 10.9483 104.755 10.0555 104.755 8.78012C104.755 6.01669 98.3781 7.46217 98.3781 3.89097C98.3781 2.36046 99.526 1 102.204 1C103.437 1 104.543 1.21257 105.435 1.63771L105.265 2.53051C104.288 2.14789 103.352 1.93531 102.247 1.93531C100.164 1.93531 99.3984 2.87063 99.3984 3.80594C99.3984 6.44183 105.776 4.95383 105.776 8.69509C105.733 10.5657 104.373 11.8837 101.737 11.8837Z" fill="#57AD56" stroke="#57AD56" stroke-width="0.25"/>
</g>
</g>
</symbol><symbol id="twitter" viewBox="0 0 18 16">
  <path fill-rule="evenodd" clip-rule="evenodd" d="M17.5302 2.09489C17.6525 2.06364 17.8052 2.09489 17.8969 2.18864C17.9885 2.28239 18.0191 2.43864 17.9886 2.56364C17.7136 3.46977 17.1637 4.12602 16.4915 4.46977V4.5634C16.4915 10.5942 12.092 15.5 6.71484 15.5C3.69018 15.5 1.24606 14.9688 0.146174 14.0627C0.0239815 13.9377 -0.0371452 13.7814 0.0239815 13.5939C0.0850472 13.4377 0.237818 13.3127 0.421137 13.3127C2.22372 13.2814 3.38467 12.844 4.27069 12.3128C2.55975 12.094 1.49041 11.2504 0.940516 9.65678C0.879389 9.50053 0.940516 9.34428 1.06271 9.25053C1.1849 9.15678 1.36822 9.15678 1.49041 9.21928C1.94869 9.53178 2.40698 9.59428 2.9569 9.59428C1.79595 8.87566 0.726618 7.68816 0.298914 6.21953C0.268336 6.06328 0.329462 5.8759 0.451655 5.8134C0.604426 5.71965 0.757197 5.7509 0.879389 5.84465C1.21548 6.12578 1.58212 6.31328 2.13201 6.40703C0.940516 5.15715 0.20727 3.31352 1.24603 1.28252L1.42935 0.907516L1.7348 1.22002C3.62905 3.25102 5.37051 4.18852 8.54791 4.8134V4.6884C8.54791 2.40739 10.2894 0.532516 12.4586 0.501266C13.314 0.501266 14.5055 1.12627 14.9944 1.40752C15.0061 1.40752 15.0177 1.41203 15.0277 1.41594C15.0438 1.42229 15.0555 1.4268 15.0555 1.40752C15.6666 1.22002 16.3998 0.907516 17.2552 0.532516C17.3775 0.470016 17.5302 0.501266 17.6219 0.595016C17.7136 0.688766 17.7441 0.813766 17.683 0.970016C17.5302 1.40752 17.2858 1.87627 16.9192 2.31364L17.5302 2.09489ZM15.7354 4.23784L15.9133 4.17741C16.4764 3.96623 16.8025 3.51347 17.01 3.12126L15.854 3.5136C15.7058 3.5739 15.528 3.5136 15.4687 3.36272C15.4094 3.21172 15.4391 3.03069 15.5576 2.94011C16.0318 2.54778 16.3875 2.12529 16.6543 1.67265C16.0615 1.91399 15.528 2.12529 15.0834 2.27617C14.9055 2.33647 14.7277 2.30632 14.5499 2.21587L14.5316 2.20573C14.1836 2.01225 13.0853 1.40141 12.4158 1.4312C10.6374 1.46135 9.21465 3.00053 9.21465 4.87163V5.7166L8.85894 5.6563C5.59857 5.05266 3.79049 4.17741 1.89352 2.27617C1.00433 4.56975 2.84201 6.16936 3.46444 6.62199L4.20541 7.16521H3.28655C2.69375 7.16521 2.04168 7.1049 1.44888 6.8333C2.10098 8.22148 3.43481 9.2476 4.56112 9.57964L4.47219 10.1832C4.2351 10.1832 3.99795 10.1832 3.76086 10.2133C3.13839 10.2436 2.57525 10.2436 2.04171 10.0624C2.63452 11.2093 3.67193 11.6922 5.36141 11.6922H6.25061L5.50961 12.2354C4.59075 12.9596 3.40515 13.6236 1.35998 13.7746C2.3381 14.2574 4.14611 14.7101 6.84338 14.7101C11.4647 14.7101 15.7354 9.99907 15.7354 4.7509V4.23784Z"/>
</symbol><symbol id="white-logo" viewBox="0 0 192 21">
<g id="white-logo">
<g id="XMLID_234_">
<path id="XMLID_243_" d="M15.0769 1.84618V12.4616C15.0769 16 13.5384 17.4616 9.84613 17.4616C6.15382 17.4616 4.61536 16 4.61536 12.4616V1.38464H1.07689C0.846126 1.38464 0.615356 1.61541 0.615356 1.84618V12.6154C0.615356 18.5385 4.38459 20.6154 9.84613 20.6154C15.3077 20.6154 19.0769 18.5385 19.0769 12.6154V1.38464H15.5384C15.3077 1.38464 15.0769 1.53849 15.0769 1.84618Z" fill="white"/>
<path id="XMLID_242_" d="M66.5385 4.46157C66.8462 4.46157 67.0001 4.38464 67.077 4.15387L68.077 1.61541C68.1539 1.46157 68.077 1.38464 67.9231 1.38464H53.6154C52.3077 1.38464 51.7693 1.76926 51.7693 2.69234V19.1539C51.7693 19.9231 52.1539 20.3077 53.1539 20.3077H66.4616C66.7693 20.3077 66.9231 20.2308 67.0001 20L68.0001 17.4616C68.077 17.3077 68.0001 17.2308 67.8462 17.2308H55.6924V13.8462C55.6924 12.6923 56.3077 12.1539 58.077 12.1539H63.3847C63.6924 12.1539 63.8462 12.077 63.9231 11.8462L64.9231 9.38464C65.0001 9.2308 64.9231 9.15387 64.7693 9.15387H55.7693V4.38464H66.5385V4.46157Z" fill="white"/>
<path id="XMLID_238_" fill-rule="evenodd" clip-rule="evenodd" d="M41.3845 10.3077C42.923 9.46155 43.5385 8 43.5385 6.15393C43.5385 2 40.1538 1.38464 36.6154 1.38464H28.5385C27.2307 1.38464 26.6923 1.76929 26.6923 2.69238V19.1539C26.6923 19.9231 27.0769 20.3077 28.0769 20.3077H38C41.7692 20.3077 44.3845 18.8462 44.3845 15.0769C44.4615 12.7693 43.5385 10.8462 41.3845 10.3077ZM30.6923 4.38464H36.923C39 4.38464 39.6154 5.15393 39.6154 6.76929C39.6154 8.38464 39 9.15393 36.923 9.15393H30.6923V4.38464ZM30.6923 17.2307H37.6923C39.923 17.2307 40.5385 16.4615 40.5385 14.6923C40.5385 12.9231 39.923 12.0769 37.6923 12.0769H33.0769C31.3076 12.0769 30.6923 12.6154 30.6923 13.7692V17.2307Z" fill="white"/>
<path id="XMLID_235_" fill-rule="evenodd" clip-rule="evenodd" d="M88.6154 12.6924L92.8462 20C92.9231 20.0769 92.9231 20.3077 92.7693 20.3077H89.1538C88.8462 20.3077 88.7693 20.2308 88.6154 20L84.7693 13.0769H81.3077C79.5385 13.0769 78.9231 13.6154 78.9231 14.7693V20.3077H75.4615C75.2307 20.3077 75 20.0769 75 19.8462V2.69238C75 1.76929 75.5385 1.38464 76.8462 1.38464H84.9231C89.6154 1.38464 92.4615 2.61536 92.4615 7.23083C92.4615 10.7693 90.6923 12.1539 88.6154 12.6924ZM78.8462 10.1539H85.4615C87.9231 10.1539 88.4615 9.23083 88.4615 7.23083C88.4615 5.30774 87.9231 4.38464 85.4615 4.38464H78.8462V10.1539Z" fill="white"/>
</g>
<g id="XMLID_224_">
<path id="XMLID_232_" d="M122.308 18.6154L122.231 20.3077H108.231V1.38464H121.692L121.769 3.15387H110.154V9.69234H120.154V11.2308H110.154V18.6154H122.308Z" fill="#57AD56" stroke="#57AD56" stroke-width="0.25"/>
<g id="XMLID_229_">
<path fill-rule="evenodd" clip-rule="evenodd" d="M133.923 15.3846H145.077L147.231 20.3077H149.385L140.692 1.38464H138.462L129.692 20.3077H131.769L133.923 15.3846ZM134.615 13.7693L138.692 4.61548L139.462 2.69238H139.538L140.308 4.61548L144.308 13.7693H134.615Z" fill="#57AD56"/>
<path d="M145.077 15.3846L145.191 15.3345L145.159 15.2596H145.077V15.3846ZM133.923 15.3846V15.2596H133.841L133.808 15.3345L133.923 15.3846ZM147.231 20.3077L147.116 20.3578L147.149 20.4327H147.231V20.3077ZM149.385 20.3077V20.4327H149.579L149.498 20.2556L149.385 20.3077ZM140.692 1.38464L140.806 1.33247L140.772 1.25964H140.692V1.38464ZM138.462 1.38464V1.25964H138.382L138.348 1.33209L138.462 1.38464ZM129.692 20.3077L129.579 20.2552L129.497 20.4327H129.692V20.3077ZM131.769 20.3077V20.4327H131.851L131.884 20.3578L131.769 20.3077ZM138.692 4.61548L138.807 4.66637L138.808 4.6619L138.692 4.61548ZM134.615 13.7693L134.501 13.7184L134.423 13.8943H134.615V13.7693ZM139.462 2.69238V2.56738H139.377L139.345 2.64596L139.462 2.69238ZM139.538 2.69238L139.655 2.64596L139.623 2.56738H139.538V2.69238ZM140.308 4.61548L140.191 4.66192L140.193 4.66553L140.308 4.61548ZM144.308 13.7693V13.8943H144.499L144.422 13.7192L144.308 13.7693ZM145.077 15.2596H133.923V15.5096H145.077V15.2596ZM147.345 20.2576L145.191 15.3345L144.962 15.4347L147.116 20.3578L147.345 20.2576ZM149.385 20.1827H147.231V20.4327H149.385V20.1827ZM140.579 1.43682L149.271 20.3599L149.498 20.2556L140.806 1.33247L140.579 1.43682ZM138.462 1.50964H140.692V1.25964H138.462V1.50964ZM129.806 20.3603L138.575 1.4372L138.348 1.33209L129.579 20.2552L129.806 20.3603ZM131.769 20.1827H129.692V20.4327H131.769V20.1827ZM133.808 15.3345L131.655 20.2576L131.884 20.3578L134.037 15.4347L133.808 15.3345ZM138.578 4.56462L134.501 13.7184L134.73 13.8201L138.806 4.66633L138.578 4.56462ZM139.345 2.64596L138.576 4.56905L138.808 4.6619L139.578 2.73881L139.345 2.64596ZM139.538 2.56738H139.462V2.81738H139.538V2.56738ZM140.424 4.56906L139.655 2.64596L139.422 2.7388L140.192 4.6619L140.424 4.56906ZM144.422 13.7192L140.422 4.56543L140.193 4.66553L144.193 13.8193L144.422 13.7192ZM134.615 13.8943H144.308V13.6443H134.615V13.8943Z" fill="#57AD56"/>
</g>
<path id="XMLID_227_" d="M163.231 3.15387V20.3077H161.308V3.15387H154.231L154.308 1.38464H170.385V3.15387H163.231Z" fill="#57AD56" stroke="#57AD56" stroke-width="0.25"/>
<path id="XMLID_225_" d="M184.077 20.6923C181.461 20.6923 179.385 20.0769 177.692 19.0769L178 17.3846C179.769 18.3846 181.769 19 184.154 19C187.692 19 189.538 17.3846 189.538 15.0769C189.538 10.0769 178 12.6923 178 6.23077C178 3.46154 180.077 1 184.923 1C187.154 1 189.154 1.38462 190.769 2.15385L190.461 3.76923C188.692 3.07692 187 2.69231 185 2.69231C181.231 2.69231 179.846 4.38462 179.846 6.07692C179.846 10.8462 191.385 8.15385 191.385 14.9231C191.308 18.3077 188.846 20.6923 184.077 20.6923Z" fill="#57AD56" stroke="#57AD56" stroke-width="0.25"/>
</g>
</g>
</symbol><symbol id="world" viewBox="0 0 16 16">
<g id="world">
<path id="Shape" fill-rule="evenodd" clip-rule="evenodd" d="M8.33741 0.165901C8.31608 0.163493 8.29478 0.160799 8.27346 0.158103C8.20778 0.149798 8.14199 0.141479 8.07523 0.141479C8.06139 0.141479 8.04771 0.143335 8.03405 0.145186C8.02224 0.146788 8.01045 0.148387 7.9986 0.148778C7.97722 0.148387 7.95595 0.146784 7.93467 0.14518C7.91014 0.14333 7.88558 0.141479 7.86078 0.141479C3.52702 0.141479 0.00112915 3.66765 0.00112915 8.00113C0.00112915 12.3352 3.52702 15.8608 7.86078 15.8608C7.8857 15.8608 7.91038 15.859 7.93499 15.8572C7.95611 15.8557 7.97719 15.8541 7.99832 15.8538C8.0103 15.8542 8.02216 15.8557 8.03401 15.8572C8.04771 15.859 8.06139 15.8608 8.07523 15.8608C8.14549 15.8608 8.21467 15.8519 8.28378 15.8431L8.31513 15.8391L8.33741 15.8364C12.4491 15.5882 15.7204 12.1743 15.7204 8.00113C15.7204 3.82794 12.4491 0.414322 8.33741 0.165901ZM5.50794 1.54387C4.71187 2.46288 4.06513 3.78246 3.71004 5.34092C2.60576 5.22106 1.93937 5.08155 1.67074 5.01699C2.45113 3.40556 3.82695 2.16028 5.50794 1.54387ZM1.29881 5.93236C1.0925 6.58527 0.980217 7.28029 0.980217 8.00113C0.981379 8.84796 1.13996 9.6872 1.44787 10.4761C1.76253 10.4 2.46373 10.2543 3.60197 10.1308C3.48127 9.4546 3.41025 8.74302 3.41025 8.00113C3.41086 7.43445 3.45091 6.86849 3.53011 6.30737C2.20323 6.16001 1.48632 5.98288 1.29881 5.93236ZM1.87566 11.3833C2.23159 11.3075 2.86934 11.1927 3.81194 11.0942C4.18274 12.4663 4.78597 13.6258 5.5085 14.459C3.97127 13.8965 2.68366 12.8066 1.87509 11.3833H1.87566ZM4.70766 11.0103C5.21601 12.9791 6.45615 14.4396 7.29825 14.7921V10.9072C6.45615 10.9173 5.4386 10.9561 4.70766 11.0103ZM7.29825 9.92871C6.45615 9.93937 5.31004 9.9826 4.52857 10.0432C4.42106 9.39481 4.39046 8.70878 4.39046 8.00113C4.39046 7.45095 4.40113 6.91537 4.46766 6.39804C5.2612 6.46092 6.45615 6.50611 7.29825 6.51734V9.92843V9.92871ZM4.60239 5.42794C5.35523 5.48548 6.45615 5.52815 7.29825 5.53853V5.53825V1.21039C6.45615 1.58878 5.07257 3.23987 4.60239 5.42794ZM14.0255 4.96309C13.872 5.01025 13.25 5.18373 12.0197 5.32941C11.742 3.85292 11.241 2.59481 10.5875 1.68646C12.0856 2.33573 13.3039 3.50457 14.0255 4.96281V4.96309ZM11.1121 5.42653C10.651 3.21123 9.26316 1.54527 8.42106 1.1958V5.53881C9.26316 5.52843 10.3714 5.48548 11.1121 5.42653ZM8.42106 6.51734C9.26316 6.50639 10.4435 6.46008 11.2272 6.39495C11.2918 6.91313 11.3081 7.44955 11.3081 8.00113C11.3081 8.70962 11.2828 9.39678 11.1784 10.046C10.4067 9.98373 9.26316 9.93881 8.42106 9.92871V6.51734ZM8.42106 10.9072V14.8067V14.807C9.26316 14.4808 10.51 13.0077 11.0097 11.0125C10.2883 10.9569 9.26316 10.9173 8.42106 10.9072ZM10.5875 14.3164C11.1764 13.4978 11.6455 12.3992 11.9349 11.1088C12.9027 11.2202 13.5124 11.3499 13.8198 11.4274C13.0797 12.7118 11.9466 13.7245 10.5875 14.3164ZM12.1679 6.29671C12.3156 7.57569 12.2957 8.86847 12.1089 10.1423L12.1092 10.142C13.3039 10.2824 13.9834 10.4514 14.2538 10.5303C14.5653 9.74653 14.7422 8.8946 14.7422 8.00113C14.7418 7.11797 14.5702 6.24327 14.2369 5.42541L14.395 5.87173C14.3506 5.88744 13.6808 6.11509 12.1679 6.29671Z" fill="white"/>
</g>
</symbol></svg>